<svg xmlns="http://www.w3.org/2000/svg" width="1200" height="675" viewBox="0 0 1200 675" role="img" aria-labelledby="title">
  <title id="title">AgPages rural supplier fixture hero</title>
  <defs>
    <linearGradient id="sky" x1="0" x2="0" y1="0" y2="1">
      <stop offset="0" stop-color="#b8d9f3"/>
      <stop offset="1" stop-color="#f4e2b5"/>
    </linearGradient>
    <linearGradient id="field" x1="0" x2="1" y1="0" y2="1">
      <stop offset="0" stop-color="#8fbc5a"/>
      <stop offset="1" stop-color="#d5a546"/>
    </linearGradient>
  </defs>
  <rect width="1200" height="675" fill="url(#sky)"/>
  <path d="M0 430c164-52 293-70 452-36 180 38 328 101 537 49 87-22 151-57 211-96v328H0z" fill="url(#field)"/>
  <path d="M0 500c192-52 355-38 520 10 205 60 408 51 680-65v230H0z" fill="#6f9f47" opacity=".75"/>
  <rect x="735" y="315" width="210" height="128" rx="8" fill="#ffffff" opacity=".9"/>
  <rect x="760" y="338" width="160" height="14" rx="7" fill="#1c6b37"/>
  <rect x="760" y="370" width="124" height="12" rx="6" fill="#f5a623"/>
  <rect x="760" y="400" width="142" height="12" rx="6" fill="#6f9f47"/>
  <circle cx="256" cy="356" r="54" fill="#7d4e27"/>
  <path d="M180 462c33-59 61-88 87-88 31 0 60 35 98 104" stroke="#7d4e27" stroke-width="24" stroke-linecap="round" fill="none"/>
</svg>
